<?xml version="1.0" standalone="no"?>
<svg xmlns:xlink="http://www.w3.org/1999/xlink" id="wave" style="transform:rotate(180deg); transition: 0.3s" viewBox="0 0 1440 100" version="1.1" xmlns="http://www.w3.org/2000/svg"><defs><linearGradient id="sw-gradient-0" x1="0" x2="0" y1="1" y2="0"><stop stop-color="rgba(0, 0, 0, 0.959)" offset="0%"/><stop stop-color="rgba(0, 0, 0, 0.959)" offset="100%"/></linearGradient></defs><path style="transform:translate(0, 0px); opacity:1" fill="url(#sw-gradient-0)" d="M0,10L30,18.3C60,27,120,43,180,53.3C240,63,300,67,360,65C420,63,480,57,540,55C600,53,660,57,720,60C780,63,840,67,900,65C960,63,1020,57,1080,60C1140,63,1200,77,1260,80C1320,83,1380,77,1440,70C1500,63,1560,57,1620,55C1680,53,1740,57,1800,58.3C1860,60,1920,60,1980,63.3C2040,67,2100,73,2160,78.3C2220,83,2280,87,2340,75C2400,63,2460,37,2520,30C2580,23,2640,37,2700,35C2760,33,2820,17,2880,21.7C2940,27,3000,53,3060,60C3120,67,3180,53,3240,50C3300,47,3360,53,3420,50C3480,47,3540,33,3600,23.3C3660,13,3720,7,3780,10C3840,13,3900,27,3960,28.3C4020,30,4080,20,4140,23.3C4200,27,4260,43,4290,51.7L4320,60L4320,100L4290,100C4260,100,4200,100,4140,100C4080,100,4020,100,3960,100C3900,100,3840,100,3780,100C3720,100,3660,100,3600,100C3540,100,3480,100,3420,100C3360,100,3300,100,3240,100C3180,100,3120,100,3060,100C3000,100,2940,100,2880,100C2820,100,2760,100,2700,100C2640,100,2580,100,2520,100C2460,100,2400,100,2340,100C2280,100,2220,100,2160,100C2100,100,2040,100,1980,100C1920,100,1860,100,1800,100C1740,100,1680,100,1620,100C1560,100,1500,100,1440,100C1380,100,1320,100,1260,100C1200,100,1140,100,1080,100C1020,100,960,100,900,100C840,100,780,100,720,100C660,100,600,100,540,100C480,100,420,100,360,100C300,100,240,100,180,100C120,100,60,100,30,100L0,100Z"/></svg>